<svg xmlns="http://www.w3.org/2000/svg" fill="none" viewBox="0 0 128 128">
    <path d="M50.4 78.5a75.1 75.1 0 0 0-28.5 6.9l24.2-65.7c.7-2 1.9-3.2 3.4-3.2h29c1.5 0 2.7 1.2 3.4 3.2l24.2 65.7s-13.6-7-28.5-6.9l-11.4-30.5a1 1 0 0 0-1.8 0L50.4 78.5Zm-1.1 28.2Zm-4.2-20.2c-2 6.6-.6 15.8 4.2 20.2a17.5 17.5 0 0 1 .2-1.8c.8-5.1 3.2-9.8 5.9-14.2L62 88.6l-8-1.6c-1.8-.4-3.4.8-4.9 1.8-.5.3-1 .6-1.5.8Zm34.3-3.3c-1.5-1-3.1-2.2-4.9-1.8l-8 1.6 7.4 2.1c2.7 4.4 5 9.1 5.9 14.2.2.6.2 1.2.2 1.8 4.8-4.4 6.2-13.6 4.2-20.2-.5-.2-1-.5-1.5-.8Z" />
    <style>
        path { fill: #000; }
        @media (prefers-color-scheme: dark) { path { fill: #FFF; } }
    </style>
</svg>
